<svg xmlns="http://www.w3.org/2000/svg" viewBox="0 0 500 500"><g id="freepik--background-simple--inject-5"><path d="M256.61,60.18s-67.79,2.13-113,58.68-48.53,135-52.88,198.43,31.55,112.26,85.86,119.65,70.3-41.09,132.16-67.35S390.91,345.68,429,290s14.8-142.78-50.31-188.51S256.61,60.18,256.61,60.18Z" style="fill:#92E3A9"></path><path d="M256.61,60.18s-67.79,2.13-113,58.68-48.53,135-52.88,198.43,31.55,112.26,85.86,119.65,70.3-41.09,132.16-67.35S390.91,345.68,429,290s14.8-142.78-50.31-188.51S256.61,60.18,256.61,60.18Z" style="fill:#fff;opacity:0.7000000000000001"></path></g><g id="freepik--Bricks--inject-5"><polyline points="233 81.53 233 90.19 268.33 90.19" style="fill:none;stroke:#263238;stroke-linecap:round;stroke-linejoin:round"></polyline><polyline points="250.33 92.19 250.33 102.19 228.33 102.19" style="fill:none;stroke:#263238;stroke-linecap:round;stroke-linejoin:round"></polyline><polyline points="233.67 105.53 233.67 113.53 262.33 113.53" style="fill:none;stroke:#263238;stroke-linecap:round;stroke-linejoin:round"></polyline><line x1="259.67" y1="102.86" x2="275.67" y2="102.86" style="fill:none;stroke:#263238;stroke-linecap:round;stroke-linejoin:round"></line><line x1="272.33" y1="88.86" x2="272.33" y2="80.19" style="fill:none;stroke:#263238;stroke-linecap:round;stroke-linejoin:round"></line><line x1="251.67" y1="77.52" x2="251.67" y2="68.19" style="fill:none;stroke:#263238;stroke-linecap:round;stroke-linejoin:round"></line><line x1="263.67" y1="78.86" x2="284.33" y2="78.86" style="fill:none;stroke:#263238;stroke-linecap:round;stroke-linejoin:round"></line><polyline points="233 137.53 233 146.19 268.33 146.19" style="fill:none;stroke:#263238;stroke-linecap:round;stroke-linejoin:round"></polyline><polyline points="250.33 148.19 250.33 158.19 228.33 158.19" style="fill:none;stroke:#263238;stroke-linecap:round;stroke-linejoin:round"></polyline><polyline points="233.67 161.53 233.67 169.53 262.33 169.53" style="fill:none;stroke:#263238;stroke-linecap:round;stroke-linejoin:round"></polyline><line x1="259.67" y1="158.86" x2="275.67" y2="158.86" style="fill:none;stroke:#263238;stroke-linecap:round;stroke-linejoin:round"></line><line x1="272.33" y1="144.86" x2="272.33" y2="136.19" style="fill:none;stroke:#263238;stroke-linecap:round;stroke-linejoin:round"></line><line x1="251.67" y1="133.52" x2="251.67" y2="124.19" style="fill:none;stroke:#263238;stroke-linecap:round;stroke-linejoin:round"></line><line x1="263.67" y1="134.86" x2="284.33" y2="134.86" style="fill:none;stroke:#263238;stroke-linecap:round;stroke-linejoin:round"></line><polyline points="233 193.53 233 202.19 268.33 202.19" style="fill:none;stroke:#263238;stroke-linecap:round;stroke-linejoin:round"></polyline><polyline points="250.33 204.19 250.33 214.19 228.33 214.19" style="fill:none;stroke:#263238;stroke-linecap:round;stroke-linejoin:round"></polyline><polyline points="233.67 217.53 233.67 225.53 262.33 225.53" style="fill:none;stroke:#263238;stroke-linecap:round;stroke-linejoin:round"></polyline><line x1="259.67" y1="214.86" x2="275.67" y2="214.86" style="fill:none;stroke:#263238;stroke-linecap:round;stroke-linejoin:round"></line><line x1="272.33" y1="200.86" x2="272.33" y2="192.19" style="fill:none;stroke:#263238;stroke-linecap:round;stroke-linejoin:round"></line><line x1="251.67" y1="189.52" x2="251.67" y2="180.19" style="fill:none;stroke:#263238;stroke-linecap:round;stroke-linejoin:round"></line><line x1="263.67" y1="190.86" x2="284.33" y2="190.86" style="fill:none;stroke:#263238;stroke-linecap:round;stroke-linejoin:round"></line><polyline points="233 249.53 233 258.19 268.33 258.19" style="fill:none;stroke:#263238;stroke-linecap:round;stroke-linejoin:round"></polyline><polyline points="250.33 260.19 250.33 270.19 228.33 270.19" style="fill:none;stroke:#263238;stroke-linecap:round;stroke-linejoin:round"></polyline><polyline points="233.67 273.52 233.67 281.52 262.33 281.52" style="fill:none;stroke:#263238;stroke-linecap:round;stroke-linejoin:round"></polyline><line x1="259.67" y1="270.86" x2="275.67" y2="270.86" style="fill:none;stroke:#263238;stroke-linecap:round;stroke-linejoin:round"></line><line x1="272.33" y1="256.86" x2="272.33" y2="248.19" style="fill:none;stroke:#263238;stroke-linecap:round;stroke-linejoin:round"></line><line x1="251.67" y1="245.52" x2="251.67" y2="236.19" style="fill:none;stroke:#263238;stroke-linecap:round;stroke-linejoin:round"></line><line x1="263.67" y1="246.86" x2="284.33" y2="246.86" style="fill:none;stroke:#263238;stroke-linecap:round;stroke-linejoin:round"></line><polyline points="233 305.52 233 314.19 268.33 314.19" style="fill:none;stroke:#263238;stroke-linecap:round;stroke-linejoin:round"></polyline><polyline points="250.33 316.19 250.33 326.19 228.33 326.19" style="fill:none;stroke:#263238;stroke-linecap:round;stroke-linejoin:round"></polyline><polyline points="233.67 329.52 233.67 337.52 262.33 337.52" style="fill:none;stroke:#263238;stroke-linecap:round;stroke-linejoin:round"></polyline><line x1="259.67" y1="326.86" x2="275.67" y2="326.86" style="fill:none;stroke:#263238;stroke-linecap:round;stroke-linejoin:round"></line><line x1="272.33" y1="312.86" x2="272.33" y2="304.19" style="fill:none;stroke:#263238;stroke-linecap:round;stroke-linejoin:round"></line><line x1="251.67" y1="301.52" x2="251.67" y2="292.19" style="fill:none;stroke:#263238;stroke-linecap:round;stroke-linejoin:round"></line><line x1="263.67" y1="302.86" x2="284.33" y2="302.86" style="fill:none;stroke:#263238;stroke-linecap:round;stroke-linejoin:round"></line><polyline points="233 361.52 233 370.19 268.33 370.19" style="fill:none;stroke:#263238;stroke-linecap:round;stroke-linejoin:round"></polyline><polyline points="250.33 372.19 250.33 382.19 228.33 382.19" style="fill:none;stroke:#263238;stroke-linecap:round;stroke-linejoin:round"></polyline><polyline points="233.67 385.52 233.67 393.52 262.33 393.52" style="fill:none;stroke:#263238;stroke-linecap:round;stroke-linejoin:round"></polyline><line x1="259.67" y1="382.86" x2="275.67" y2="382.86" style="fill:none;stroke:#263238;stroke-linecap:round;stroke-linejoin:round"></line><line x1="272.33" y1="368.86" x2="272.33" y2="360.19" style="fill:none;stroke:#263238;stroke-linecap:round;stroke-linejoin:round"></line><line x1="251.67" y1="357.52" x2="251.67" y2="348.19" style="fill:none;stroke:#263238;stroke-linecap:round;stroke-linejoin:round"></line><line x1="263.67" y1="358.86" x2="284.33" y2="358.86" style="fill:none;stroke:#263238;stroke-linecap:round;stroke-linejoin:round"></line><polyline points="233 417.52 233 426.19 268.33 426.19" style="fill:none;stroke:#263238;stroke-linecap:round;stroke-linejoin:round"></polyline><polyline points="250.33 428.19 250.33 438.19 228.33 438.19" style="fill:none;stroke:#263238;stroke-linecap:round;stroke-linejoin:round"></polyline><polyline points="233.67 441.52 233.67 449.52 262.33 449.52" style="fill:none;stroke:#263238;stroke-linecap:round;stroke-linejoin:round"></polyline><line x1="259.67" y1="438.86" x2="275.67" y2="438.86" style="fill:none;stroke:#263238;stroke-linecap:round;stroke-linejoin:round"></line><line x1="272.33" y1="424.86" x2="272.33" y2="416.19" style="fill:none;stroke:#263238;stroke-linecap:round;stroke-linejoin:round"></line><line x1="251.67" y1="413.52" x2="251.67" y2="404.19" style="fill:none;stroke:#263238;stroke-linecap:round;stroke-linejoin:round"></line><line x1="263.67" y1="414.86" x2="284.33" y2="414.86" style="fill:none;stroke:#263238;stroke-linecap:round;stroke-linejoin:round"></line></g><g id="freepik--balcony-2--inject-5"><path d="M369.52,122.86s13.78,78.13,65,102.47l-6.4,125.53H439" style="fill:none;stroke:#263238;stroke-linecap:round;stroke-linejoin:round"></path><rect x="369.52" y="122.86" width="69.49" height="226.72" style="fill:none;stroke:#263238;stroke-linecap:round;stroke-linejoin:round"></rect><path d="M434.53,225.33s-33.09-34-35.86-79.41" style="fill:none;stroke:#263238;stroke-linecap:round;stroke-linejoin:round"></path><path d="M418.37,141.61q0-2.91.15-5.94" style="fill:none;stroke:#263238;stroke-linecap:round;stroke-linejoin:round"></path><path d="M436.45,216.36s-17-21.78-18-68" style="fill:none;stroke:#263238;stroke-linecap:round;stroke-linejoin:round"></path><line x1="431.33" y1="175.38" x2="394.82" y2="225.97" style="fill:none;stroke:#263238;stroke-linecap:round;stroke-linejoin:round"></line><line x1="435.81" y1="158.08" x2="399.31" y2="208.68" style="fill:none;stroke:#263238;stroke-linecap:round;stroke-linejoin:round"></line><rect x="296.19" y="122.86" width="69.49" height="226.72" style="fill:#4c4c4c;stroke:#263238;stroke-linecap:round;stroke-linejoin:round"></rect><rect x="289.99" y="104.35" width="153.09" height="19.29" style="fill:#263238;stroke:#263238;stroke-linecap:round;stroke-linejoin:round"></rect><line x1="301.17" y1="107.02" x2="301.17" y2="122.15" style="fill:none;stroke:#6b6b6b;stroke-linecap:round;stroke-linejoin:round"></line><line x1="310.57" y1="107.02" x2="310.57" y2="122.15" style="fill:none;stroke:#6b6b6b;stroke-linecap:round;stroke-linejoin:round"></line><line x1="319.96" y1="107.02" x2="319.96" y2="122.15" style="fill:none;stroke:#6b6b6b;stroke-linecap:round;stroke-linejoin:round"></line><line x1="329.35" y1="107.02" x2="329.35" y2="122.15" style="fill:none;stroke:#6b6b6b;stroke-linecap:round;stroke-linejoin:round"></line><line x1="338.75" y1="107.02" x2="338.75" y2="122.15" style="fill:none;stroke:#6b6b6b;stroke-linecap:round;stroke-linejoin:round"></line><line x1="348.14" y1="107.02" x2="348.14" y2="122.15" style="fill:none;stroke:#6b6b6b;stroke-linecap:round;stroke-linejoin:round"></line><line x1="357.54" y1="107.02" x2="357.54" y2="122.15" style="fill:none;stroke:#6b6b6b;stroke-linecap:round;stroke-linejoin:round"></line><line x1="366.93" y1="107.02" x2="366.93" y2="122.15" style="fill:none;stroke:#6b6b6b;stroke-linecap:round;stroke-linejoin:round"></line><line x1="376.33" y1="107.02" x2="376.33" y2="122.15" style="fill:none;stroke:#6b6b6b;stroke-linecap:round;stroke-linejoin:round"></line><line x1="385.72" y1="107.02" x2="385.72" y2="122.15" style="fill:none;stroke:#6b6b6b;stroke-linecap:round;stroke-linejoin:round"></line><line x1="395.12" y1="107.02" x2="395.12" y2="122.15" style="fill:none;stroke:#6b6b6b;stroke-linecap:round;stroke-linejoin:round"></line><line x1="404.51" y1="107.02" x2="404.51" y2="122.15" style="fill:none;stroke:#6b6b6b;stroke-linecap:round;stroke-linejoin:round"></line><line x1="413.91" y1="107.02" x2="413.91" y2="122.15" style="fill:none;stroke:#6b6b6b;stroke-linecap:round;stroke-linejoin:round"></line><line x1="423.3" y1="107.02" x2="423.3" y2="122.15" style="fill:none;stroke:#6b6b6b;stroke-linecap:round;stroke-linejoin:round"></line><line x1="432.7" y1="107.02" x2="432.7" y2="122.15" style="fill:none;stroke:#6b6b6b;stroke-linecap:round;stroke-linejoin:round"></line><path d="M307.5,318.43a6.61,6.61,0,0,0-3.43-3.86,10.52,10.52,0,0,0-5.65-.21c-3.42.6-6.41,2-9.65,3.12,0,0,1.38-.51,7.07,2.26a15.31,15.31,0,0,0,6.88,1.76C304.64,321.46,307.59,320.91,307.5,318.43Z" style="fill:#92E3A9"></path><path d="M307.8,310.08a6.58,6.58,0,0,0-2.16-4.69,10.59,10.59,0,0,0-5.35-1.83c-3.45-.41-6.7,0-10.14.2,0,0,1.47-.09,6.11,4.21a15.29,15.29,0,0,0,6.08,3.67C304.2,312.15,307.18,312.48,307.8,310.08Z" style="fill:#92E3A9"></path><path d="M313.68,321.12a6.6,6.6,0,0,1-2.33-4.61,10.48,10.48,0,0,1,1.9-5.32c1.81-3,4.18-5.24,6.46-7.83,0,0-1,1.1-.51,7.41a15.25,15.25,0,0,1-.9,7C317.55,319.58,316,322.12,313.68,321.12Z" style="fill:#92E3A9"></path><path d="M321.89,325.69a6.63,6.63,0,0,1,1.61-4.91,10.54,10.54,0,0,1,5.1-2.43c3.38-.82,6.66-.76,10.1-1,0,0-1.47.08-5.59,4.88a15.17,15.17,0,0,1-5.61,4.35C325.72,327.33,322.8,328,321.89,325.69Z" style="fill:#92E3A9"></path><path d="M321.36,315.15a6.58,6.58,0,0,1-4.37-2.76,10.55,10.55,0,0,1-1.11-5.54c0-3.47.9-6.64,1.52-10,0,0-.28,1.45,3.37,6.61a15.38,15.38,0,0,1,2.85,6.51C323.88,311.85,323.82,314.84,321.36,315.15Z" style="fill:#92E3A9"></path><path d="M329.83,309.86a6.6,6.6,0,0,0,4.85,1.78,10.48,10.48,0,0,0,5.07-2.51c2.73-2.15,4.72-4.76,7-7.33,0,0-1,1.11-7.3,1.37a15.41,15.41,0,0,0-6.89,1.72C330.91,305.84,328.58,307.72,329.83,309.86Z" style="fill:#92E3A9"></path><path d="M327.38,307.8a6.57,6.57,0,0,0,4.89-1.66,10.56,10.56,0,0,0,2.38-5.13c.78-3.38.69-6.66.87-10.1,0,0-.06,1.47-4.82,5.63a15.44,15.44,0,0,0-4.29,5.66C325.7,304,325.06,306.92,327.38,307.8Z" style="fill:#92E3A9"></path><polyline points="316.82 336.6 311.71 324.02 305.82 309.49" style="fill:none;stroke:#263238;stroke-linecap:round;stroke-linejoin:round"></polyline><polyline points="318 334.44 323.1 316.95 328.6 306.15" style="fill:none;stroke:#263238;stroke-linecap:round;stroke-linejoin:round"></polyline><line x1="319.96" y1="327.56" x2="325.07" y2="324.61" style="fill:none;stroke:#263238;stroke-linecap:round;stroke-linejoin:round"></line><line x1="323.1" y1="316.95" x2="320.55" y2="311.26" style="fill:none;stroke:#263238;stroke-linecap:round;stroke-linejoin:round"></line><line x1="326.3" y1="311.29" x2="332.53" y2="308.51" style="fill:none;stroke:#263238;stroke-linecap:round;stroke-linejoin:round"></line><line x1="312.69" y1="326.38" x2="314.85" y2="317.74" style="fill:none;stroke:#263238;stroke-linecap:round;stroke-linejoin:round"></line><line x1="309.83" y1="319.81" x2="304.84" y2="317.15" style="fill:none;stroke:#263238;stroke-linecap:round;stroke-linejoin:round"></line><polygon points="321.91 342.88 312.7 342.88 310.73 332.47 323.89 332.47 321.91 342.88" style="fill:#263238;stroke:#263238;stroke-linecap:round;stroke-linejoin:round"></polygon><path d="M364.89,320.18s-.12,10,.84,13.33,6.36,20.9,6.84,23.66a26.62,26.62,0,0,1,.48,4s-2.76,1.2-6.6,3.12-6.73,3.73-5.77,4.09,6.85.36,7.69.36,13.21-1,13.21-1,.48-2.53.6-4-1.2-4.08-1.2-4.68.84-8.41.24-13.45-4.44-14.05-4.44-15.49v-6.6l-.24-2.65Z" style="fill:#fff;stroke:#263238;stroke-linecap:round;stroke-linejoin:round"></path><path d="M381.58,367.74s.48-2.53.6-4a3.82,3.82,0,0,0-.1-1c-1.88.24-7.47,1.14-7.47,1.14a8.34,8.34,0,0,0-.36-2.16c-.36-1.2-1.2-.6-1.2-.6s-2.76,1.2-6.6,3.12-6.73,3.73-5.77,4.09,6.85.36,7.69.36S381.58,367.74,381.58,367.74Z" style="fill:#fff;stroke:#263238;stroke-linecap:round;stroke-linejoin:round"></path><path d="M364.77,245s-9-2.64-14.77-7.08-6.73-6.25-8.17-8.29-3.72-2.16-5.76-1.92-3.85-.24-3.13.84,3,1,3.49,1a9.27,9.27,0,0,1,1.2.12l-6.85,3.84s-3.48-1.2-2.88.48,5.53,2.64,7.21,2.64a59.09,59.09,0,0,0,6.84-1.08s8.05,9.37,12.49,13.93S363,255.1,363,255.1l3.72-7Z" style="fill:#fff;stroke:#263238;stroke-linecap:round;stroke-linejoin:round"></path><path d="M341.18,233.5s-1.94-1.38-3.05-1.38-5.81,2.21-5.81,2.21" style="fill:none;stroke:#263238;stroke-linecap:round;stroke-linejoin:round"></path><path d="M372.81,323.79s.28,4.44,1,9.12,5.85,23.06,5.85,25.7-.12,3.72-.12,3.72a16,16,0,0,1-4.93,3.12c-3,1.21-7.56,2.77-7.56,3.73s2,1,4.92,1h17.65s1.09-.36,1.09-2.88-2-5.29-2-5.89,1.81-10.81,1.81-14.53-2.89-11.17-3.49-14.77a46,46,0,0,1-.12-9.13l-14.17-.6Z" style="fill:#fff;stroke:#263238;stroke-linecap:round;stroke-linejoin:round"></path><path d="M390.71,367.26a7.39,7.39,0,0,0-.54-2.52l-.67.23a19.39,19.39,0,0,1-6.72.6,5.19,5.19,0,0,1-2.28-1.92c-1-1.44-1.56-.36-1.56-.36l-.49,0a16.06,16.06,0,0,1-3.84,2.2c-3,1.21-7.56,2.77-7.56,3.73s2,1,4.92,1h17.65S390.71,369.78,390.71,367.26Z" style="fill:#fff;stroke:#263238;stroke-linecap:round;stroke-linejoin:round"></path><path d="M359.6,297.13s-1.8,18.73-1.92,20.89a8.42,8.42,0,0,1-.48,2.88A98.18,98.18,0,0,0,369,322.34h3.72V298.69Z" style="fill:#263238;stroke:#263238;stroke-linecap:round;stroke-linejoin:round"></path><path d="M365.73,299.53s.24,19.09-.12,21-.48,3.13-.48,3.13,4.56,2.28,12.73,3.12S396,324.51,396,324.51s-2.16-11.77-2.16-15.49.12-11.89.12-11.89l-28.46.12Z" style="fill:#263238;stroke:#263238;stroke-linecap:round;stroke-linejoin:round"></path><path d="M364.29,238.65s.84,8.76-3.13,14.89-6.24,16.33-6.72,21.85-.84,22.34-.84,22.34,3.36,1.92,16.09,3.6,28.1-3.48,28.1-3.48-2.16-21.14-2.52-23.54-.72-20.89-2.52-28.1-5.53-13.69-8.41-16.21a12.8,12.8,0,0,0-5.52-3Z" style="fill:#92E3A9;stroke:#263238;stroke-linecap:round;stroke-linejoin:round"></path><polygon points="365.65 231.47 361.86 235.37 362.83 240.89 368.36 234.28 365.65 231.47" style="fill:#92E3A9;stroke:#263238;stroke-linecap:round;stroke-linejoin:round"></polygon><path d="M358.83,202.55s-3.79,6.5-3.69,7.69.87,1.84.55,2.71-3.69,3.25-3.14,4.44a6.28,6.28,0,0,0,2.49,2.16s1.19,7.8,2.16,8.67,3.68.32,3.68.32l5,5.31,11.69-8.66-2.6-4.88s3.36-5.74,3.14-9.85A12.6,12.6,0,0,0,370.74,200C366.41,198.11,360.78,198,358.83,202.55Z" style="fill:#fff;stroke:#263238;stroke-linecap:round;stroke-linejoin:round"></path><path d="M375,220.31s3.36-5.74,3.14-9.85A12.6,12.6,0,0,0,370.74,200c-3.8-1.61-8.59-1.89-11,1.12a5,5,0,0,1,5.51,0c2.81,2.06,2,4.11.1,5.52s-4,1.95-2.92,3,3,2.28,2.82,3.58-.65,2.27.65,2.16,1.84-1.84,2.59-2.16,3,.32,2.6,2.92a5,5,0,0,1-3,3.57s.65,2.06,2.38,2.28c1.24.15,3.42-1,4.56-1.61Z" style="fill:#263238;stroke:#263238;stroke-linecap:round;stroke-linejoin:round"></path><path d="M359.37,213.17c0,.59-.29,1.08-.65,1.08s-.65-.49-.65-1.08.29-1.09.65-1.09S359.37,212.57,359.37,213.17Z" style="fill:#263238"></path><path d="M357,210.78s1.84-1.62,3.35,0" style="fill:none;stroke:#263238;stroke-linecap:round;stroke-linejoin:round"></path><path d="M357.31,220.42a8.16,8.16,0,0,0,3.57-1.62" style="fill:none;stroke:#263238;stroke-linecap:round;stroke-linejoin:round"></path><path d="M357.64,220.75s1.08,1.84,2.38,1.3,1-2.82,1-2.82Z" style="fill:#263238"></path><polygon points="362.94 234.5 366.08 240.89 380.48 226.7 377.45 222.48 362.94 234.5" style="fill:#92E3A9;stroke:#263238;stroke-linecap:round;stroke-linejoin:round"></polygon><path d="M371,258.34s-18.13-5.16-19.93-5.88a10,10,0,0,1-2.64-1.45s-.84-4.92-1.69-5.64-3.6-1.08-4.68-2-1.68-.36-1.32,1a5.91,5.91,0,0,0,2.16,2.52l.24.84s-3.84-1.44-4.92-2-4-2.16-4.08-1,1.2,2.16,1.2,2.16,1.44,2.88,2.52,4.56,3.6,2.65,5.76,3.25a20.52,20.52,0,0,1,3.36,1.2s7.45,5,12.85,8.4,16.94,7.93,18.26,6.73,2.64-6,2.64-6Z" style="fill:#fff;stroke:#263238;stroke-linecap:round;stroke-linejoin:round"></path><path d="M374.61,236.84s-2.76,4.21-3,7.21-1.56,10.09-1.56,10.09-1.68.84-1.8,1.56-.24,2.16-.24,2.16a23.76,23.76,0,0,0,4.92,4.68c3.73,2.88,10.69,5.29,10.69,5.29s3.72-8.65,4.32-13.21,2.77-8.29,1.32-12.13" style="fill:#92E3A9;stroke:#263238;stroke-linecap:round;stroke-linejoin:round"></path><rect x="316.28" y="281.16" width="103.58" height="56.99" style="fill:#263238;stroke:#263238;stroke-linecap:round;stroke-linejoin:round;stroke-width:3px;opacity:0.2"></rect><polyline points="292.18 345.87 292.18 269.01 442.37 269.01 442.37 347.46" style="fill:none;stroke:#263238;stroke-linecap:round;stroke-linejoin:round;stroke-width:3px"></polyline><line x1="292.97" y1="280.11" x2="439.99" y2="280.11" style="fill:none;stroke:#263238;stroke-linecap:round;stroke-linejoin:round;stroke-width:3px"></line><line x1="292.97" y1="339.11" x2="439.99" y2="339.11" style="fill:none;stroke:#263238;stroke-linecap:round;stroke-linejoin:round;stroke-width:3px"></line><rect x="287.57" y="377.04" width="156.3" height="39.29" style="opacity:0.19"></rect><rect x="288.22" y="346.67" width="157.33" height="47.58" style="fill:#a6a6a6;stroke:#263238;stroke-linecap:round;stroke-linejoin:round"></rect><rect x="305.96" y="346.67" width="121.83" height="47.58" style="fill:#c9c9c9;stroke:#263238;stroke-linecap:round;stroke-linejoin:round"></rect><rect x="288.22" y="346.67" width="157.33" height="12" style="fill:#263238;stroke:#263238;stroke-linecap:round;stroke-linejoin:round"></rect><rect x="285.31" y="341.91" width="163.15" height="13.48" style="fill:#a6a6a6;stroke:#263238;stroke-linecap:round;stroke-linejoin:round"></rect><rect x="304.37" y="341.91" width="125.01" height="13.48" style="fill:#c9c9c9;stroke:#263238;stroke-linecap:round;stroke-linejoin:round"></rect><line x1="316.28" y1="281.16" x2="316.28" y2="338.14" style="fill:none;stroke:#263238;stroke-linecap:round;stroke-linejoin:round;stroke-width:3px"></line><line x1="419.86" y1="281.16" x2="419.86" y2="338.14" style="fill:none;stroke:#263238;stroke-linecap:round;stroke-linejoin:round;stroke-width:3px"></line></g><g id="freepik--balcony-1--inject-5"><path d="M143.14,122.86s13.77,78.13,65,102.47l-6.4,125.53h10.88" style="fill:none;stroke:#263238;stroke-linecap:round;stroke-linejoin:round"></path><rect x="143.14" y="122.86" width="69.49" height="226.72" style="fill:none;stroke:#263238;stroke-linecap:round;stroke-linejoin:round"></rect><path d="M208.15,225.33s-33.09-34-35.87-79.41" style="fill:none;stroke:#263238;stroke-linecap:round;stroke-linejoin:round"></path><path d="M192,141.61q0-2.91.15-5.94" style="fill:none;stroke:#263238;stroke-linecap:round;stroke-linejoin:round"></path><path d="M210.07,216.36s-17-21.78-18-68" style="fill:none;stroke:#263238;stroke-linecap:round;stroke-linejoin:round"></path><line x1="203.03" y1="175.38" x2="166.52" y2="225.97" style="fill:none;stroke:#263238;stroke-linecap:round;stroke-linejoin:round"></line><line x1="207.51" y1="158.08" x2="171" y2="208.68" style="fill:none;stroke:#263238;stroke-linecap:round;stroke-linejoin:round"></line><rect x="69.81" y="122.86" width="69.49" height="226.72" style="fill:#4c4c4c;stroke:#263238;stroke-linecap:round;stroke-linejoin:round"></rect><rect x="70.94" y="153.21" width="21.89" height="9.45" rx="1.81" style="fill:gray;stroke:#263238;stroke-linecap:round;stroke-linejoin:round"></rect><polyline points="73.93 154.2 81.89 123.36 88.6 153.96" style="fill:none;stroke:#828282;stroke-miterlimit:10"></polyline><path d="M80.14,151s-2.48-3-4.22-3,.24,1.75.24,1.75a9.59,9.59,0,0,0-2.73-.75c-1,0-3.24,1.49-3.24,1.49l3.74,1.25-3,.74A11,11,0,0,1,69.7,154c-.75.75-.75,4.48-.75,4.48l1.26-1.58.73-.91.5,6.47.25,3.48,2-6.71-.75,7.71,1.49-1-1.49,6.47,2-1a23.72,23.72,0,0,0-.5,3,42.4,42.4,0,0,0,1,4.48l1.49-6.22,1.24.5-1.49-4.73,1.25.25.24-4.23-.74-1.24-.75-1.49s2,2,2.24.49-2-5.22-2-5.22,2.24,0,2-.75a14.53,14.53,0,0,0-1-2h2.48l2-.25Z" style="fill:#92E3A9"></path><path d="M83.13,151s2.49-3,4.23-3-.25,1.75-.25,1.75a9.58,9.58,0,0,1,2.74-.75c1,0,3.23,1.49,3.23,1.49l-3.73,1.25,3,.74A10.68,10.68,0,0,0,93.58,154c.74.75.74,4.48.74,4.48l-1.26-1.58-.73-.91-.5,6.47-.24,3.48-2-6.71.74,7.71-1.49-1,1.49,6.47-2-1a23.72,23.72,0,0,1,.5,3,42.77,42.77,0,0,1-1,4.48l-1.5-6.22-1.24.5,1.49-4.73-1.24.25-.25-4.23.75-1.24.74-1.49s-2,2-2.24.49,2-5.22,2-5.22-2.24,0-2-.75a14.18,14.18,0,0,1,1-2H82.88l-2-.25Z" style="fill:#92E3A9"></path><rect x="64.38" y="104.35" width="153.09" height="19.29" style="fill:#263238;stroke:#263238;stroke-linecap:round;stroke-linejoin:round"></rect><line x1="73.61" y1="107.02" x2="73.61" y2="122.15" style="fill:none;stroke:#6b6b6b;stroke-linecap:round;stroke-linejoin:round"></line><line x1="83.01" y1="107.02" x2="83.01" y2="122.15" style="fill:none;stroke:#6b6b6b;stroke-linecap:round;stroke-linejoin:round"></line><line x1="92.4" y1="107.02" x2="92.4" y2="122.15" style="fill:none;stroke:#6b6b6b;stroke-linecap:round;stroke-linejoin:round"></line><line x1="101.8" y1="107.02" x2="101.8" y2="122.15" style="fill:none;stroke:#6b6b6b;stroke-linecap:round;stroke-linejoin:round"></line><line x1="111.19" y1="107.02" x2="111.19" y2="122.15" style="fill:none;stroke:#6b6b6b;stroke-linecap:round;stroke-linejoin:round"></line><line x1="120.59" y1="107.02" x2="120.59" y2="122.15" style="fill:none;stroke:#6b6b6b;stroke-linecap:round;stroke-linejoin:round"></line><line x1="129.98" y1="107.02" x2="129.98" y2="122.15" style="fill:none;stroke:#6b6b6b;stroke-linecap:round;stroke-linejoin:round"></line><line x1="139.38" y1="107.02" x2="139.38" y2="122.15" style="fill:none;stroke:#6b6b6b;stroke-linecap:round;stroke-linejoin:round"></line><line x1="148.77" y1="107.02" x2="148.77" y2="122.15" style="fill:none;stroke:#6b6b6b;stroke-linecap:round;stroke-linejoin:round"></line><line x1="158.16" y1="107.02" x2="158.16" y2="122.15" style="fill:none;stroke:#6b6b6b;stroke-linecap:round;stroke-linejoin:round"></line><line x1="167.56" y1="107.02" x2="167.56" y2="122.15" style="fill:none;stroke:#6b6b6b;stroke-linecap:round;stroke-linejoin:round"></line><line x1="176.95" y1="107.02" x2="176.95" y2="122.15" style="fill:none;stroke:#6b6b6b;stroke-linecap:round;stroke-linejoin:round"></line><line x1="186.35" y1="107.02" x2="186.35" y2="122.15" style="fill:none;stroke:#6b6b6b;stroke-linecap:round;stroke-linejoin:round"></line><line x1="195.74" y1="107.02" x2="195.74" y2="122.15" style="fill:none;stroke:#6b6b6b;stroke-linecap:round;stroke-linejoin:round"></line><line x1="205.14" y1="107.02" x2="205.14" y2="122.15" style="fill:none;stroke:#6b6b6b;stroke-linecap:round;stroke-linejoin:round"></line><path d="M195.34,212a7,7,0,0,0,3.28-5c.29-3.26-3.67-5.31-8.23-7s-11.57-1.43-15.45,3.8-2.22,15.78-2.2,20.49-1.85,16.52-1.85,16.52-.56,3.09,4.93,5.56,13.17-3.85,14.4-8.16a43.27,43.27,0,0,0,1.06-10.61s-.16-6.43.27-11.38,2.06-5.67,2.06-5.67Z" style="fill:#263238;stroke:#263238;stroke-linecap:round;stroke-linejoin:round"></path><path d="M201.7,290.09a118,118,0,0,1-.55,14.64c-.82,9.48-5.07,32.22-6.06,37.12a200.36,200.36,0,0,0-2.16,20c.14.42.42,1.56.42,1.56s.86.57,3.84,2.7,6.39,2.84,5.83,3.55-4.55.57-7.39.29-6.82-.57-7.67-.72-1-2.41-1-3.69.71-1.42.43-4.83-.52-24.38-.38-30.92,1.31-11.87,2.64-14,1.21-7.45-.06-10.84-4-11.61-4-11.61,7.33-.65,9.65-1.16a22.67,22.67,0,0,0,4.87-1.86Z" style="fill:#fff;stroke:#263238;stroke-linecap:round;stroke-linejoin:round"></path><path d="M193.82,349.31c.47-3,.94-5.83,1.27-7.46,1-4.9,5.24-27.64,6.06-37.12a118,118,0,0,0,.55-14.64l-1.58.15a22.67,22.67,0,0,1-4.87,1.86c-2.32.51-9.65,1.16-9.65,1.16s2.71,8.22,4,11.61,1.38,8.68.06,10.84-2.5,7.49-2.64,14c-.08,3.53-.19,11.39-.29,18.41A13.11,13.11,0,0,0,193.82,349.31Z" style="fill:#fff;stroke:#263238;stroke-linecap:round;stroke-linejoin:round"></path><path d="M197.19,366.07c-3-2.13-3.84-2.7-3.84-2.7s0-.14-.08-.34a1.25,1.25,0,0,0-.91.62c-.28.71-.57,1.71-.57,1.71l-4.67-.85a3.26,3.26,0,0,0-.16,1c0,1.28.14,3.55,1,3.69s4.83.43,7.67.72,6.82.42,7.39-.29S200.17,368.2,197.19,366.07Z" style="fill:#fff;stroke:#263238;stroke-linecap:round;stroke-linejoin:round"></path><path d="M175.3,293.65s4,8.19,7.14,13a97.62,97.62,0,0,1,6,11.21s-6.63,4.13-8.48,9-7.19,23.76-8.47,27.07-3.87,8.16-3.16,10.43,6.25,4.69,7.39,5,7.81,1,8.38.28-4-3.12-5.26-4.83a34.84,34.84,0,0,1-2.84-5.26s6.72-16.75,10.15-21.73,12-17.79,12.94-19.41a6.94,6.94,0,0,0,1-5.19c-.44-1.47-6.85-19.7-6.85-19.7a39.46,39.46,0,0,1-9,.22,86.91,86.91,0,0,1-8.74-1.19Z" style="fill:#fff;stroke:#263238;stroke-linecap:round;stroke-linejoin:round"></path><path d="M200.13,313.2c-.44-1.47-6.85-19.7-6.85-19.7a39.46,39.46,0,0,1-9,.22,86.91,86.91,0,0,1-8.74-1.19l-.24,1.12s4,8.19,7.14,13a97.62,97.62,0,0,1,6,11.21s-6.63,4.13-8.48,9c-1.06,2.79-3.3,10.29-5.24,16.77a9.4,9.4,0,0,0,3.47,2,11.62,11.62,0,0,0,3.33.43,83.4,83.4,0,0,1,4.63-8.3c3.42-5,12-17.79,12.94-19.41A6.94,6.94,0,0,0,200.13,313.2Z" style="fill:#fff;stroke:#263238;stroke-linecap:round;stroke-linejoin:round"></path><path d="M178.86,364.79a34.84,34.84,0,0,1-2.84-5.26s.06-.15.16-.44a2,2,0,0,0-1.72,1,16.27,16.27,0,0,0-1.56,3.27L169,361a5.2,5.2,0,0,0-.63,3.39c.71,2.28,6.25,4.69,7.39,5s7.81,1,8.38.28S180.14,366.5,178.86,364.79Z" style="fill:#fff;stroke:#263238;stroke-linecap:round;stroke-linejoin:round"></path><path d="M172.79,288s.83,3.63,1.29,4.81,2,2.75,7,3.46A28,28,0,0,0,194,295c3.81-1.24,8.23-2.86,8.74-3.81s.42-6.53.42-6.53-5.74,5.35-13.68,4.81-14.69-3.27-15.54-3.34S172.79,288,172.79,288Z" style="fill:#92E3A9;stroke:#263238;stroke-linecap:round;stroke-linejoin:round"></path><path d="M182.06,223.65s.31,4.73-1.46,7-10,8.83-11.22,11-.14,14.82.84,20,.87,13.05,1,17.77.47,6,1.54,8.55,8.47,4.29,13.59,4.45,10.92-2.62,13-3.3,4.13-3.2,4.52-6.17-1.11-13.5-1.23-15.36-.6-12.89-2.23-20.44-4.42-9.94-5.85-11.49-4.4-2-5.88-2.93.66-5.94.66-5.94S182,224.07,182.06,223.65Z" style="fill:#92E3A9;stroke:#263238;stroke-linecap:round;stroke-linejoin:round"></path><path d="M191.36,248.12c1.95-2-.08-12.67-.18-14.26a12.72,12.72,0,0,1-2.49-1.08c-1.48-1,.66-5.94.66-5.94s-7.32-2.77-7.29-3.19c0,0,.31,4.73-1.46,7a41.55,41.55,0,0,1-3.91,3.82,9.33,9.33,0,0,1,3.86,3.45C182.57,241,189.32,250.23,191.36,248.12Z" style="fill:#fff;stroke:#263238;stroke-linecap:round;stroke-linejoin:round"></path><path d="M197.14,238.93s2.18,1.18,4.21,5.78,6.14,13.08,6.84,14.85,0,4.57-3.52,6.11-14.4,1.61-14.4,1.61l2.13-4.81,6.73-3.69a26.89,26.89,0,0,0,1.1-4.47c.14-1.56-2.6-11.06-2.6-11.06" style="fill:#92E3A9;stroke:#263238;stroke-linecap:round;stroke-linejoin:round"></path><path d="M178.85,262.44s-2.42,1.65-2.52,2.78-.1,2.84.71,3.34,4.31-2.05,4.74-2S181.59,262.11,178.85,262.44Z" style="fill:#fff;stroke:#263238;stroke-linecap:round;stroke-linejoin:round"></path><path d="M192.8,257.8a28.81,28.81,0,0,0,4.22-.92c1.18-.46,4.14,1.5,4.52,2.11s-3,1.88-3.73,2S192.8,257.8,192.8,257.8Z" style="fill:#fff;stroke:#263238;stroke-linecap:round;stroke-linejoin:round"></path><path d="M170.83,244.78a11.39,11.39,0,0,0,.11,5.29c.76,2.77,7.19,12.45,8.63,15.57s5.05,6,7.34,5.91,4.93-4.28,5.56-4.93,5.68-6.36,5.68-6.36-1-2.22-2.93-2.39a36.32,36.32,0,0,0-4.13-.07l-2.58.2s-5.12-11.71-6.77-14.13-5-3-5-3" style="fill:#92E3A9;stroke:#263238;stroke-linecap:round;stroke-linejoin:round"></path><path d="M192.64,206.88a31.72,31.72,0,0,1-4.31,7c-2.54,2.92-7.4,8.06-7.4,8.06s1,2.8,2.67,3.65,6.23,3.82,8.41,3.44,3.38-7.83,3.38-7.83a2,2,0,0,0,1.38-1c.35-.82-1.18-4.52-1.15-4.94s.7-3.08,0-5A8.4,8.4,0,0,0,192.64,206.88Z" style="fill:#fff;stroke:#263238;stroke-linecap:round;stroke-linejoin:round"></path><path d="M193.52,216.51c-.05.6-.38,1.05-.74,1s-.61-.54-.55-1.13.38-1.06.74-1S193.57,215.91,193.52,216.51Z" style="fill:#263238"></path><path d="M191.16,222.48a4,4,0,0,0,2.87.66" style="fill:none;stroke:#263238;stroke-linecap:round;stroke-linejoin:round"></path><path d="M191.43,214.66a2.13,2.13,0,0,1,2.73-.39" style="fill:none;stroke:#263238;stroke-linecap:round;stroke-linejoin:round"></path><path d="M112,287.78l3.63,38.34s-21.55,31.09-20.42,32.22S99.11,362,99.79,362s17-19.29,20.88-21.78a17.86,17.86,0,0,0,7.71-12.48c.45-5,.91-33.12.91-39.7s-.46-10.67,0-11.8a18.29,18.29,0,0,0,.45-4.31s-17.24,4.08-18.83,3.85" style="fill:#fff;stroke:#263238;stroke-linecap:round;stroke-linejoin:round"></path><path d="M95.25,358.34s-4.76,5-4.76,6.13,5.22,4.08,6.35,4.53,5.45.68,7.26.68,4.54-.45,3.86-1.81-6.13-3.18-6.13-3.18l-2-2.72Z" style="fill:#fff;stroke:#263238;stroke-linecap:round;stroke-linejoin:round"></path><path d="M96,268.94a56.43,56.43,0,0,0-3.24,14.3c-.46,7,2.95,32.22,3.63,33.58s.45,45.6.23,47-.46,4.09.22,4.09,7.26,1.13,8.17-.68.45-6.81.45-8.17,2.05-31.54,2.5-33.35,2.72-27.91,2.72-27.91l1.14-6.12,1.13-2.05,5.9-9.53s-7.49-4.31-12.48-7S97.65,267.81,96,268.94Z" style="fill:#fff;stroke:#263238;stroke-linecap:round;stroke-linejoin:round"></path><path d="M99.34,364.69s5.67-2.27,8.17-.91,4.76,5.22,4.76,6.36H96.62A5.35,5.35,0,0,1,99.34,364.69Z" style="fill:#fff;stroke:#263238;stroke-linecap:round;stroke-linejoin:round"></path><path d="M124,231.22a37.15,37.15,0,0,0-6.52-1.21,7.1,7.1,0,0,0-6.86,4.42c-1.22,2.66-7.52,21.9-8.41,24s-4.64,7.85-6.19,10.5,2.76,8.63,6.19,10.85,17.81,3.42,20.58,2.43a15.11,15.11,0,0,0,5-3.43c.34-.22,7.75-17.92,8.52-20.13s6.42-11.17,6.42-11.17,2.65-5.87,1.66-9.3-5.76-5-7.64-5-6.41.11-8.07-.34S124,231.22,124,231.22Z" style="fill:#92E3A9;stroke:#263238;stroke-linecap:round;stroke-linejoin:round"></path><path d="M121.55,221.71l.11.44a26.05,26.05,0,0,1,.77,6.42c-.11,3.21.34,6.86,2.55,9.84s4.75,1.11,5.2-1.21,2.65-9.63,2.65-9.63-4.75-.55-6.52-2.76a24.13,24.13,0,0,0-4.54-4.09Z" style="fill:#fff;stroke:#263238;stroke-linecap:round;stroke-linejoin:round"></path><path d="M136.37,213.86l2-3.54,2,1.66a21.52,21.52,0,0,0-1-8c-1.33-3.43-7.08-4.53-10.4-5a12.19,12.19,0,0,0-10.84,4.09c-3.54,3.76-2.66,8.07-1.88,10.51s1.88,6.41,2.54,7.08,2.88,1.66,4.43.11,1.1-4.32,1.77-5.53,5.75-.23,7.19-.56a5.75,5.75,0,0,0,2.65-1.88Z" style="fill:#92E3A9;stroke:#263238;stroke-linecap:round;stroke-linejoin:round"></path><path d="M120.44,218s-1.44-3.43-2.76-1.77.33,5.53,1.44,6.2a1.93,1.93,0,0,0,2.1-.12s4.2,5.87,5.2,6.86,3.09,2.66,5.64,1.11,4.31-6.53,4.75-10.95a61.26,61.26,0,0,0-.22-10.51l-5.53,3.65.33-2a13.76,13.76,0,0,1-3.31,1.88c-1.44.44-3.54,1-3.54,1l.77-2.55a19.86,19.86,0,0,1-2.21,3.1,5,5,0,0,0-1.11,3.21V219l-1-1-.56.78Z" style="fill:#fff;stroke:#263238;stroke-linecap:round;stroke-linejoin:round"></path><ellipse cx="129.27" cy="217.05" rx="0.85" ry="1.28" style="fill:#263238"></ellipse><path d="M134.9,216.58c0,.71-.38,1.28-.85,1.28s-.85-.57-.85-1.28.38-1.28.85-1.28S134.9,215.88,134.9,216.58Z" style="fill:#263238"></path><path d="M132.6,217s.12,2.1.82,2.8.47,1.4-.7,1.64a11.42,11.42,0,0,1-2,.23" style="fill:none;stroke:#263238;stroke-linecap:round;stroke-linejoin:round"></path><path d="M128.17,223.29a5.2,5.2,0,0,0,2.56.82" style="fill:none;stroke:#263238;stroke-linecap:round;stroke-linejoin:round"></path><path d="M127.23,214.66a4,4,0,0,1,3-.7" style="fill:none;stroke:#263238;stroke-linecap:round;stroke-linejoin:round"></path><path d="M133.19,214.07a1.8,1.8,0,0,1,2.33.12" style="fill:none;stroke:#263238;stroke-linecap:round;stroke-linejoin:round"></path><rect x="88.19" y="281.16" width="103.58" height="56.99" style="fill:#263238;stroke:#263238;stroke-linecap:round;stroke-linejoin:round;stroke-width:3px;opacity:0.2"></rect><polyline points="64.08 345.87 64.08 269.01 214.27 269.01 214.27 347.46" style="fill:none;stroke:#263238;stroke-linecap:round;stroke-linejoin:round;stroke-width:3px"></polyline><line x1="64.88" y1="280.11" x2="211.89" y2="280.11" style="fill:none;stroke:#263238;stroke-linecap:round;stroke-linejoin:round;stroke-width:3px"></line><line x1="64.88" y1="339.11" x2="211.89" y2="339.11" style="fill:none;stroke:#263238;stroke-linecap:round;stroke-linejoin:round;stroke-width:3px"></line><rect x="60.3" y="377.04" width="156.3" height="39.29" style="opacity:0.19"></rect><rect x="60.12" y="346.67" width="157.33" height="47.58" style="fill:#a6a6a6;stroke:#263238;stroke-linecap:round;stroke-linejoin:round"></rect><rect x="77.86" y="346.67" width="121.83" height="47.58" style="fill:#c9c9c9;stroke:#263238;stroke-linecap:round;stroke-linejoin:round"></rect><rect x="60.12" y="346.67" width="157.33" height="12" style="fill:#263238;stroke:#263238;stroke-linecap:round;stroke-linejoin:round"></rect><rect x="57.21" y="341.91" width="163.15" height="13.48" style="fill:#a6a6a6;stroke:#263238;stroke-linecap:round;stroke-linejoin:round"></rect><rect x="76.28" y="341.91" width="125.01" height="13.48" style="fill:#c9c9c9;stroke:#263238;stroke-linecap:round;stroke-linejoin:round"></rect><line x1="88.19" y1="281.16" x2="88.19" y2="338.14" style="fill:none;stroke:#263238;stroke-linecap:round;stroke-linejoin:round;stroke-width:3px"></line><line x1="191.77" y1="281.16" x2="191.77" y2="338.14" style="fill:none;stroke:#263238;stroke-linecap:round;stroke-linejoin:round;stroke-width:3px"></line><path d="M120.74,230.83a9.48,9.48,0,0,0-7.41-.91c-4.24,1.21-4.69,4.24-5.9,7.11s-7.56,25.11-7.56,27.23,1.81,3.48,4.08,3.33A4.53,4.53,0,0,0,108,263.8c.45-2,6.95-23.59,6.95-23.59" style="fill:#92E3A9;stroke:#263238;stroke-linecap:round;stroke-linejoin:round"></path><path d="M131.33,270.91,134.2,273c.61.46,3,5.9,3.18,7s.45,3.63.45,3.63a5.69,5.69,0,0,1-2.8.75c-1.21-.15-1.27.11-1.27.11-.6-1.36-4.47-8.27-4.47-8.27l-2.95-3.94,3.78-1.51Z" style="fill:#fff;stroke:#263238;stroke-linecap:round;stroke-linejoin:round"></path><path d="M129.75,276.33s.57,3,.91,4.13,1,4.14,1,4.14h1l-.57-5.29" style="fill:#fff;stroke:#263238;stroke-linecap:round;stroke-linejoin:round"></path><line x1="133.88" y1="278.63" x2="135.03" y2="284.37" style="fill:none;stroke:#263238;stroke-linecap:round;stroke-linejoin:round"></line><line x1="135.49" y1="278.28" x2="136.86" y2="283.68" style="fill:none;stroke:#263238;stroke-linecap:round;stroke-linejoin:round"></line><path d="M106.52,260.63l23.6,10.13-2.42,2.57s-14.07-1.81-19.21-3.32-8.62-2.12-8.62-5.75" style="fill:#92E3A9;stroke:#263238;stroke-linecap:round;stroke-linejoin:round"></path><path d="M140,241.72l3.48,26a3.68,3.68,0,0,0,4.08,1.81c2.88-.6,4.09-2.12,3.33-5.59S147.36,242,146,238.7s-4-5.72-6.65-5.6-4.24.3-4.24.3" style="fill:#92E3A9;stroke:#263238;stroke-linecap:round;stroke-linejoin:round"></path><path d="M127.85,270.76s-2.57.64-3.39,1.55-4.63,8.44-4.93,9,0,6.5.61,6.66,2-.91,2.87-2.12a16.93,16.93,0,0,0,1.66-4.54s2.57-2.27,3-3.63.91-3.78.91-3.78l1.66-1.21Z" style="fill:#fff;stroke:#263238;stroke-linecap:round;stroke-linejoin:round"></path><line x1="120.33" y1="281.5" x2="120.9" y2="287.12" style="fill:none;stroke:#263238;stroke-linecap:round;stroke-linejoin:round"></line><line x1="121.82" y1="281.38" x2="122.28" y2="286.32" style="fill:none;stroke:#263238;stroke-linecap:round;stroke-linejoin:round"></line><path d="M146.91,263.05l-20.27,7.86,2.72,3.18s13.62-2.27,16.19-3.18,5.9-1.36,6.35-3.93-1.36-5.14-1.36-5.14" style="fill:#92E3A9;stroke:#263238;stroke-linecap:round;stroke-linejoin:round"></path></g></svg>